<svg xmlns="http://www.w3.org/2000/svg" xmlns:xlink="http://www.w3.org/1999/xlink" width="338.972" height="339.663" viewBox="0 0 338.972 339.663">
  <defs>
    <style>
      .cls-1 {
        fill: #ffea36;
        fill-rule: evenodd;
      }

      .cls-2 {
        fill: #2a2c23;
        font-size: 35px;
        font-family: LucidaConsole, Lucida Console;
        letter-spacing: 0.03em;
      }

      .cls-3 {
        filter: url(#Path_7);
      }
    </style>
    <filter id="Path_7" x="0" y="0" width="327.796" height="339.663" filterUnits="userSpaceOnUse">
      <feOffset dy="3" input="SourceAlpha"/>
      <feGaussianBlur stdDeviation="3" result="blur"/>
      <feFlood flood-opacity="0.439"/>
      <feComposite operator="in" in2="blur"/>
      <feComposite in="SourceGraphic"/>
    </filter>
  </defs>
  <g id="kuning-bintang" transform="translate(-192.512 -203.181)">
    <g class="cls-3" transform="matrix(1, 0, 0, 1, 192.51, 203.18)">
      <path id="Path_7-2" data-name="Path 7" class="cls-1" d="M2.3,3.015,86.181,16.98,44.72-42.114l72.132-33.013L59.7-99.3,92.425-160.09,31.61-149.268l-9.165-103.14-45.437,71.4-46.666-57.4-8.119,63.574L-156.7-190.653l36.429,60.871-72.674,38.805,57.8,18.4L-165.274-6.3l58.123-16.26,4.9,89.141,49.761-57.5L4.588,69.256Z" transform="translate(201.94 258.41)"/>
    </g>
    <text id="Kuning" class="cls-2" transform="matrix(0.994, -0.111, 0.111, 0.994, 399.413, 454.119)"><tspan x="0" y="0">Kuning</tspan></text>
  </g>
</svg>
